<svg width="20" height="20" viewBox="0 0 20 20" fill="none" xmlns="http://www.w3.org/2000/svg">
<circle cx="10" cy="10" r="10" fill="#F57C00"/>
<path d="M9.71468 3.87811C9.80449 3.60172 10.1955 3.60172 10.2853 3.87812L11.5042 7.62959C11.5444 7.75319 11.6596 7.83688 11.7896 7.83688H15.7341C16.0247 7.83688 16.1455 8.20877 15.9104 8.37959L12.7192 10.6981C12.6141 10.7745 12.5701 10.9099 12.6103 11.0335L13.8292 14.785C13.919 15.0614 13.6026 15.2912 13.3675 15.1204L10.1763 12.8019C10.0712 12.7255 9.92881 12.7255 9.82366 12.8019L6.63247 15.1204C6.39736 15.2912 6.08101 15.0614 6.17082 14.785L7.38975 11.0335C7.42991 10.9099 7.38591 10.7745 7.28077 10.6981L4.08957 8.37959C3.85446 8.20877 3.97529 7.83688 4.26591 7.83688H8.21044C8.34041 7.83688 8.45559 7.75319 8.49576 7.62959L9.71468 3.87811Z" fill="white"/>
</svg>
